<svg width="24" height="20" viewBox="0 0 24 20" fill="none" xmlns="http://www.w3.org/2000/svg">
<g id="Frame" clip-path="url(#clip0_10826_5167)">
<g id="QsORNX.tif_1_">
<g id="Group">
<path id="Vector" d="M23.9999 3.7006C23.7966 4.37725 23.5878 5.05252 23.3899 5.73054C22.6405 8.29974 21.8944 10.8703 21.1457 13.4395C21.0131 13.8936 20.8022 14.0516 20.3344 14.0516C16.1886 14.0516 12.0436 14.0516 7.89781 14.0516C7.41488 14.0516 7.20673 13.8963 7.07552 13.4251C5.98465 9.50602 4.89514 5.5856 3.80495 1.66654C3.78228 1.58548 3.75687 1.50442 3.72733 1.40481C3.40515 1.40481 3.0864 1.40481 2.76766 1.40481C2.11162 1.40481 1.45627 1.4055 0.800229 1.40481C0.379128 1.40481 0.0912957 1.19873 0.0164181 0.847697C-0.0557118 0.506283 0.111217 0.219137 0.489727 0.0322867C0.502779 0.0261041 0.511023 0.0109912 0.522014 0C1.83409 0 3.14617 0 4.45824 0C4.68562 0.114721 4.88415 0.258294 4.95559 0.521396C4.99269 0.656725 5.0291 0.792054 5.06619 0.926697C5.24068 1.55388 5.41585 2.18038 5.5924 2.811C5.70712 2.811 5.79986 2.811 5.89328 2.811C11.6307 2.811 17.3674 2.81375 23.1048 2.80482C23.5294 2.80413 23.8282 2.93328 23.9999 3.32553C23.9999 3.45055 23.9999 3.57558 23.9999 3.7006ZM14.1072 7.02544C13.0767 7.02544 12.0463 7.02544 11.0166 7.02544C10.423 7.02544 9.8302 7.01995 9.23667 7.02682C8.69879 7.033 8.35669 7.51043 8.54216 7.98305C8.65208 8.26402 8.91655 8.43095 9.26965 8.43095C12.5011 8.43163 15.7325 8.43163 18.9639 8.43163C19.0031 8.43163 19.0422 8.43232 19.0807 8.4282C19.6103 8.36706 19.9016 7.80857 19.6289 7.36961C19.4702 7.11406 19.2256 7.0227 18.9316 7.02338C17.3228 7.02682 15.7153 7.02544 14.1072 7.02544ZM14.1113 9.83645C12.9565 9.83645 11.8011 9.8337 10.6463 9.83782C10.2176 9.8392 9.89408 10.149 9.89477 10.5399C9.89546 10.9218 10.2121 11.2399 10.6236 11.2406C12.949 11.2447 15.2743 11.2481 17.6003 11.2323C17.781 11.231 17.9925 11.121 18.1334 10.9974C18.3491 10.8078 18.3869 10.5351 18.2666 10.2672C18.1354 9.97521 17.8936 9.83714 17.5763 9.83645C16.4208 9.83507 15.266 9.83645 14.1113 9.83645Z" fill="#028789"/>
<path id="Vector_2" d="M12.0022 17.5661C12.0022 18.7387 11.0632 19.6744 9.8885 19.673C8.71793 19.6716 7.78437 18.7298 7.78712 17.5537C7.78986 16.3949 8.72755 15.4606 9.88987 15.4592C11.0646 15.4579 12.0022 16.3928 12.0022 17.5661Z" fill="#028789"/>
<path id="Vector_3" d="M16.2217 17.5689C16.221 16.3942 17.1573 15.4585 18.332 15.4592C19.5053 15.4599 20.4389 16.3983 20.4368 17.5744C20.4347 18.7346 19.4984 19.6709 18.3382 19.673C17.1628 19.675 16.2224 18.7401 16.2217 17.5689Z" fill="#028789"/>
</g>
</g>
</g>
<defs>
<clipPath id="clip0_10826_5167">
<rect width="24" height="19.6729" fill="white"/>
</clipPath>
</defs>
</svg>
