<svg width="235" height="72" viewBox="0 0 235 72" fill="none" xmlns="http://www.w3.org/2000/svg">
<g id="Logo">
<rect id="Rectangle 503" width="235" height="72" fill="#028789"/>
<g id="Group 1780">
<g id="Group 1738">
<g id="Group 1737">
<path id="Vector" d="M68.6279 27.768L72.1102 29.6386L84.4594 22.605L68.4454 14L51.2163 23.8107L63.6152 30.6216L68.6279 27.768Z" fill="#F2C900"/>
<path id="Vector_2" d="M71.8609 57.217L78.9188 53.2996L78.7397 40.188L61.6272 31.4954L49 25.082L49.0033 25.3576L49.1028 32.9106L71.6885 44.3841L71.8609 57.217Z" fill="white"/>
<path id="Vector_3" d="M75.3969 30.7844L71.1621 33.1756L81.6648 38.6021L81.8367 51.6738L87.7837 48.318L87.4626 23.9712L78.6104 28.9694L75.3969 30.7844Z" fill="white"/>
<path id="Vector_4" d="M67.6884 46.3138L49 36.1616L49.1494 48.1588L67.8378 58.3237L67.6884 46.3138Z" fill="white"/>
</g>
</g>
<g id="Group 1779">
<g id="Group 1585">
<path id="Vector_5" d="M123.703 25.1655H113.447V45.4115H106.458V25.1655H96.2021V22.0805C96.2021 20.5956 97.4059 19.3918 98.8908 19.3918H123.703V25.1655Z" fill="white"/>
<path id="Vector_6" d="M127.732 45.4115V29.5338H145.661C146.344 29.4578 146.927 29.2426 147.408 28.8881C147.889 28.5336 148.13 28.0271 148.13 27.3687C148.13 26.5837 147.813 26.0265 147.18 25.6974C146.547 25.3428 145.8 25.1655 144.939 25.1655H116.598V19.3918H146.117C147.358 19.3918 148.51 19.5564 149.573 19.8857C150.637 20.2149 151.561 20.696 152.346 21.3291C153.131 21.9368 153.764 22.7092 154.245 23.6461C154.752 24.5578 155.081 25.6087 155.233 26.7989V27.9005C155.031 29.7491 154.41 31.2685 153.372 32.4586C154.385 33.6489 155.005 35.1303 155.233 36.9029V38.0045C155.106 39.1946 154.79 40.2582 154.284 41.1952C153.802 42.1068 153.157 42.8792 152.346 43.5122C151.561 44.1453 150.637 44.6265 149.573 44.9557C148.51 45.2596 147.358 45.4115 146.117 45.4115H127.732ZM145.661 35.3075H134.721V39.6378H144.939C145.8 39.6378 146.547 39.4732 147.18 39.144C147.813 38.7895 148.13 38.2324 148.13 37.4726C148.13 36.8142 147.889 36.3205 147.408 35.9912C146.927 35.6367 146.344 35.4088 145.661 35.3075Z" fill="white"/>
<path id="Vector_7" d="M186.763 45.4115H182.463C180.978 45.4115 179.774 44.2078 179.774 42.7229V35.3075H166.251V45.4115H159.262V22.0805C159.262 20.5956 160.466 19.3918 161.951 19.3918H166.251V29.5338H179.774V19.3918H186.763V45.4115Z" fill="white"/>
<path id="Vector_8" d="M101.718 50.1646V51.2035H99.6761V57.9289H98.4176V51.2035H96.3643V50.1646H101.718Z" fill="white"/>
<path id="Vector_9" d="M106.14 51.6762C106.603 51.6762 107.016 51.7767 107.376 51.9778C107.744 52.1789 108.031 52.4768 108.238 52.8715C108.451 53.2663 108.558 53.7429 108.558 54.3015V57.9323H107.31V54.4915C107.31 53.9403 107.174 53.5195 106.902 53.229C106.629 52.9311 106.258 52.7822 105.786 52.7822C105.315 52.7822 104.94 52.9311 104.661 53.229C104.388 53.5195 104.252 53.9403 104.252 54.4915V57.9323H102.994V49.6653H104.252V52.4917C104.465 52.231 104.734 52.03 105.058 51.8884C105.389 51.7469 105.75 51.6762 106.14 51.6762Z" fill="white"/>
<path id="Vector_10" d="M115.738 54.7031C115.738 54.934 115.723 55.1425 115.694 55.3287H111.046C111.083 55.8202 111.263 56.215 111.587 56.5129C111.911 56.8108 112.308 56.9598 112.779 56.9598C113.456 56.9598 113.935 56.673 114.214 56.0995H115.572C115.388 56.6656 115.053 57.1311 114.567 57.496C114.089 57.8535 113.493 58.0322 112.779 58.0322C112.198 58.0322 111.675 57.9019 111.212 57.6412C110.755 57.3731 110.395 57.0007 110.129 56.5241C109.872 56.0399 109.743 55.4814 109.743 54.8483C109.743 54.2152 109.868 53.6604 110.119 53.1837C110.376 52.6996 110.733 52.3272 111.189 52.0666C111.653 51.8059 112.183 51.6755 112.779 51.6755C113.353 51.6755 113.864 51.8022 114.313 52.0554C114.762 52.3086 115.112 52.6661 115.362 53.1279C115.612 53.5822 115.738 54.1072 115.738 54.7031ZM114.424 54.3009C114.416 53.8317 114.251 53.4556 113.927 53.1725C113.603 52.8896 113.202 52.748 112.724 52.748C112.29 52.748 111.918 52.8896 111.609 53.1725C111.3 53.4481 111.116 53.8242 111.057 54.3009H114.424Z" fill="white"/>
<path id="Vector_11" d="M121.082 53.9406C121.494 54.0151 121.843 54.2348 122.131 54.5997C122.418 54.9646 122.561 55.378 122.561 55.8397C122.561 56.2345 122.458 56.592 122.252 56.9122C122.054 57.225 121.763 57.4745 121.38 57.6607C120.997 57.8395 120.552 57.9289 120.044 57.9289H116.975V50.1646H119.901C120.423 50.1646 120.872 50.2539 121.247 50.4327C121.623 50.6114 121.906 50.8535 122.097 51.1588C122.289 51.4567 122.385 51.7919 122.385 52.1643C122.385 52.6111 122.267 52.9835 122.031 53.2815C121.796 53.5794 121.479 53.7991 121.082 53.9406ZM118.234 53.4267H119.79C120.202 53.4267 120.522 53.3336 120.751 53.1474C120.986 52.9537 121.104 52.6782 121.104 52.3207C121.104 51.9706 120.986 51.6988 120.751 51.5052C120.522 51.304 120.202 51.2035 119.79 51.2035H118.234V53.4267ZM119.934 56.8899C120.361 56.8899 120.695 56.7856 120.938 56.5771C121.181 56.3686 121.302 56.0781 121.302 55.7057C121.302 55.3259 121.174 55.0242 120.916 54.8008C120.659 54.5773 120.317 54.4656 119.89 54.4656H118.234V56.8899H119.934Z" fill="white"/>
<path id="Vector_12" d="M129.438 51.7744V57.93H128.179V57.2039C127.981 57.4571 127.72 57.6582 127.396 57.8071C127.079 57.9486 126.741 58.0194 126.38 58.0194C125.902 58.0194 125.472 57.9188 125.088 57.7178C124.713 57.5167 124.415 57.2187 124.194 56.824C123.981 56.4293 123.875 55.9526 123.875 55.3941V51.7744H125.122V55.2041C125.122 55.7553 125.258 56.1798 125.53 56.4777C125.803 56.7682 126.174 56.9134 126.645 56.9134C127.116 56.9134 127.488 56.7682 127.76 56.4777C128.04 56.1798 128.179 55.7553 128.179 55.2041V51.7744H129.438Z" fill="white"/>
<path id="Vector_13" d="M133.307 58.0322C132.828 58.0322 132.397 57.9466 132.015 57.7753C131.64 57.5965 131.341 57.3582 131.121 57.0603C130.9 56.7549 130.782 56.4161 130.767 56.0437H132.07C132.092 56.3044 132.214 56.5241 132.434 56.7028C132.663 56.8741 132.946 56.9598 133.284 56.9598C133.638 56.9598 133.91 56.8927 134.101 56.7586C134.3 56.6171 134.399 56.4384 134.399 56.2224C134.399 55.9915 134.289 55.8202 134.068 55.7085C133.855 55.5968 133.512 55.4739 133.041 55.3398C132.585 55.2133 132.214 55.0903 131.926 54.9712C131.64 54.852 131.389 54.6696 131.176 54.4238C130.97 54.178 130.867 53.854 130.867 53.4518C130.867 53.1241 130.962 52.8262 131.154 52.5581C131.345 52.2825 131.617 52.0666 131.971 51.9102C132.331 51.7537 132.743 51.6755 133.207 51.6755C133.899 51.6755 134.455 51.8543 134.874 52.2118C135.301 52.5619 135.529 53.0422 135.558 53.6529H134.3C134.278 53.3774 134.167 53.1577 133.969 52.9938C133.77 52.83 133.501 52.748 133.163 52.748C132.832 52.748 132.578 52.8113 132.401 52.9379C132.224 53.0645 132.136 53.2321 132.136 53.4407C132.136 53.6045 132.195 53.7423 132.313 53.854C132.43 53.9657 132.574 54.0551 132.743 54.1222C132.913 54.1817 133.163 54.2599 133.494 54.3567C133.936 54.4759 134.296 54.5988 134.576 54.7254C134.863 54.8446 135.109 55.0233 135.315 55.2617C135.522 55.5 135.628 55.8165 135.636 56.2112C135.636 56.5613 135.54 56.8741 135.349 57.1497C135.157 57.4253 134.885 57.6412 134.532 57.7976C134.186 57.954 133.777 58.0322 133.307 58.0322Z" fill="white"/>
<path id="Vector_14" d="M137.637 50.958C137.409 50.958 137.218 50.8797 137.063 50.7233C136.909 50.567 136.832 50.3733 136.832 50.1424C136.832 49.9116 136.909 49.7179 137.063 49.5615C137.218 49.4051 137.409 49.3269 137.637 49.3269C137.858 49.3269 138.046 49.4051 138.201 49.5615C138.355 49.7179 138.432 49.9116 138.432 50.1424C138.432 50.3733 138.355 50.567 138.201 50.7233C138.046 50.8797 137.858 50.958 137.637 50.958ZM138.256 51.7735V57.9291H136.997V51.7735H138.256Z" fill="white"/>
<path id="Vector_15" d="M142.977 51.6755C143.455 51.6755 143.882 51.7761 144.257 51.9772C144.64 52.1783 144.938 52.4762 145.151 52.8709C145.365 53.2656 145.471 53.7423 145.471 54.3009V57.9317H144.224V54.4908C144.224 53.9397 144.088 53.5189 143.816 53.2284C143.543 52.9305 143.172 52.7816 142.701 52.7816C142.23 52.7816 141.854 52.9305 141.575 53.2284C141.302 53.5189 141.166 53.9397 141.166 54.4908V57.9317H139.908V51.7761H141.166V52.4799C141.372 52.2267 141.633 52.0293 141.95 51.8878C142.274 51.7463 142.616 51.6755 142.977 51.6755Z" fill="white"/>
<path id="Vector_16" d="M152.651 54.7031C152.651 54.934 152.636 55.1425 152.607 55.3287H147.959C147.996 55.8202 148.176 56.215 148.5 56.5129C148.824 56.8108 149.221 56.9598 149.692 56.9598C150.369 56.9598 150.848 56.673 151.128 56.0995H152.485C152.302 56.6656 151.966 57.1311 151.481 57.496C151.002 57.8535 150.407 58.0322 149.692 58.0322C149.111 58.0322 148.589 57.9019 148.125 57.6412C147.669 57.3731 147.308 57.0007 147.043 56.5241C146.785 56.0399 146.657 55.4814 146.657 54.8483C146.657 54.2152 146.782 53.6604 147.032 53.1837C147.289 52.6996 147.647 52.3272 148.103 52.0666C148.567 51.8059 149.096 51.6755 149.692 51.6755C150.266 51.6755 150.778 51.8022 151.227 52.0554C151.676 52.3086 152.026 52.6661 152.276 53.1279C152.526 53.5822 152.651 54.1072 152.651 54.7031ZM151.337 54.3009C151.33 53.8317 151.164 53.4556 150.841 53.1725C150.517 52.8896 150.116 52.748 149.637 52.748C149.203 52.748 148.831 52.8896 148.522 53.1725C148.213 53.4481 148.029 53.8242 147.97 54.3009H151.337Z" fill="white"/>
<path id="Vector_17" d="M156.098 58.0322C155.619 58.0322 155.188 57.9466 154.806 57.7753C154.431 57.5965 154.133 57.3582 153.912 57.0603C153.691 56.7549 153.573 56.4161 153.559 56.0437H154.861C154.883 56.3044 155.005 56.5241 155.225 56.7028C155.454 56.8741 155.737 56.9598 156.075 56.9598C156.429 56.9598 156.701 56.8927 156.892 56.7586C157.091 56.6171 157.191 56.4384 157.191 56.2224C157.191 55.9915 157.08 55.8202 156.859 55.7085C156.646 55.5968 156.304 55.4739 155.832 55.3398C155.376 55.2133 155.005 55.0903 154.717 54.9712C154.431 54.852 154.18 54.6696 153.967 54.4238C153.761 54.178 153.658 53.854 153.658 53.4518C153.658 53.1241 153.754 52.8262 153.945 52.5581C154.136 52.2825 154.408 52.0666 154.762 51.9102C155.122 51.7537 155.534 51.6755 155.998 51.6755C156.69 51.6755 157.246 51.8543 157.665 52.2118C158.092 52.5619 158.32 53.0422 158.349 53.6529H157.091C157.069 53.3774 156.958 53.1577 156.76 52.9938C156.561 52.83 156.293 52.748 155.954 52.748C155.623 52.748 155.369 52.8113 155.192 52.9379C155.015 53.0645 154.927 53.2321 154.927 53.4407C154.927 53.6045 154.986 53.7423 155.104 53.854C155.222 53.9657 155.365 54.0551 155.534 54.1222C155.704 54.1817 155.954 54.2599 156.285 54.3567C156.727 54.4759 157.087 54.5988 157.367 54.7254C157.654 54.8446 157.901 55.0233 158.106 55.2617C158.313 55.5 158.419 55.8165 158.427 56.2112C158.427 56.5613 158.331 56.8741 158.14 57.1497C157.948 57.4253 157.676 57.6412 157.323 57.7976C156.977 57.954 156.569 58.0322 156.098 58.0322Z" fill="white"/>
<path id="Vector_18" d="M161.995 58.0322C161.516 58.0322 161.085 57.9466 160.703 57.7753C160.328 57.5965 160.029 57.3582 159.809 57.0603C159.588 56.7549 159.47 56.4161 159.455 56.0437H160.758C160.78 56.3044 160.902 56.5241 161.122 56.7028C161.35 56.8741 161.634 56.9598 161.972 56.9598C162.326 56.9598 162.598 56.8927 162.789 56.7586C162.988 56.6171 163.087 56.4384 163.087 56.2224C163.087 55.9915 162.977 55.8202 162.756 55.7085C162.543 55.5968 162.2 55.4739 161.729 55.3398C161.273 55.2133 160.902 55.0903 160.614 54.9712C160.328 54.852 160.077 54.6696 159.864 54.4238C159.658 54.178 159.555 53.854 159.555 53.4518C159.555 53.1241 159.65 52.8262 159.842 52.5581C160.033 52.2825 160.305 52.0666 160.659 51.9102C161.019 51.7537 161.431 51.6755 161.895 51.6755C162.587 51.6755 163.143 51.8543 163.562 52.2118C163.989 52.5619 164.217 53.0422 164.246 53.6529H162.988C162.966 53.3774 162.855 53.1577 162.657 52.9938C162.458 52.83 162.189 52.748 161.851 52.748C161.52 52.748 161.266 52.8113 161.089 52.9379C160.912 53.0645 160.824 53.2321 160.824 53.4407C160.824 53.6045 160.883 53.7423 161.001 53.854C161.118 53.9657 161.262 54.0551 161.431 54.1222C161.601 54.1817 161.851 54.2599 162.182 54.3567C162.624 54.4759 162.984 54.5988 163.264 54.7254C163.551 54.8446 163.797 55.0233 164.003 55.2617C164.21 55.5 164.316 55.8165 164.324 56.2112C164.324 56.5613 164.228 56.8741 164.037 57.1497C163.845 57.4253 163.573 57.6412 163.22 57.7976C162.874 57.954 162.465 58.0322 161.995 58.0322Z" fill="white"/>
<path id="Vector_19" d="M171.81 50.1646V57.9289H170.552V54.5327H166.942V57.9289H165.683V50.1646H166.942V53.4937H170.552V50.1646H171.81Z" fill="white"/>
<path id="Vector_20" d="M178.975 51.7744V57.93H177.717V57.2039C177.518 57.4571 177.257 57.6582 176.933 57.8071C176.616 57.9486 176.278 58.0194 175.917 58.0194C175.439 58.0194 175.008 57.9188 174.626 57.7178C174.25 57.5167 173.952 57.2187 173.732 56.824C173.518 56.4293 173.411 55.9526 173.411 55.3941V51.7744H174.659V55.2041C174.659 55.7553 174.795 56.1798 175.067 56.4777C175.339 56.7682 175.711 56.9134 176.182 56.9134C176.653 56.9134 177.025 56.7682 177.297 56.4777C177.577 56.1798 177.717 55.7553 177.717 55.2041V51.7744H178.975Z" fill="white"/>
<path id="Vector_21" d="M181.894 52.6928C182.108 52.3949 182.399 52.1528 182.766 51.9666C183.142 51.773 183.557 51.6762 184.014 51.6762C184.551 51.6762 185.037 51.8065 185.471 52.0672C185.905 52.3279 186.247 52.7002 186.498 53.1844C186.748 53.661 186.873 54.2084 186.873 54.8266C186.873 55.4448 186.748 55.9996 186.498 56.4912C186.247 56.9753 185.901 57.3551 185.46 57.6307C185.026 57.8988 184.544 58.0328 184.014 58.0328C183.543 58.0328 183.123 57.9398 182.755 57.7536C182.395 57.5674 182.108 57.329 181.894 57.0386V57.9323H180.636V49.6653H181.894V52.6928ZM185.592 54.8266C185.592 54.4021 185.504 54.0371 185.327 53.7318C185.158 53.419 184.93 53.1844 184.643 53.0279C184.364 52.8641 184.062 52.7822 183.738 52.7822C183.421 52.7822 183.12 52.8641 182.833 53.0279C182.553 53.1918 182.325 53.4302 182.148 53.7429C181.979 54.0558 181.894 54.4244 181.894 54.849C181.894 55.2734 181.979 55.6459 182.148 55.9661C182.325 56.2789 182.553 56.5173 182.833 56.6811C183.12 56.845 183.421 56.9269 183.738 56.9269C184.062 56.9269 184.364 56.845 184.643 56.6811C184.93 56.5098 185.158 56.264 185.327 55.9438C185.504 55.6235 185.592 55.2511 185.592 54.8266Z" fill="white"/>
</g>
</g>
</g>
</g>
</svg>
